<svg width="32" height="32" viewBox="0 0 32 32" fill="none" xmlns="http://www.w3.org/2000/svg">
<path d="M5.80005 24.6L5.97005 24.363L13.99 9.149L14.007 8.988L10.472 2.348C10.4073 2.22658 10.3061 2.12858 10.1826 2.06787C10.0591 2.00715 9.91969 1.9868 9.78401 2.00969C9.64834 2.03258 9.52329 2.09755 9.42657 2.19541C9.32985 2.29327 9.26635 2.41907 9.24505 2.555L5.80005 24.6Z" fill="#FFC24A"/>
<path d="M5.90002 24.42L6.02802 24.17L13.965 9.114L10.439 2.448C10.3809 2.33207 10.2867 2.23811 10.1707 2.18018C10.0547 2.12225 9.92298 2.10348 9.79538 2.12668C9.66778 2.14988 9.55113 2.2138 9.46291 2.30887C9.37469 2.40393 9.31964 2.52502 9.30602 2.654L5.90002 24.42Z" fill="#FFA712"/>
<path d="M16.584 14.01L19.216 11.31L16.583 6.28899C16.525 6.18093 16.4388 6.09061 16.3336 6.02765C16.2284 5.96468 16.1081 5.93143 15.9855 5.93143C15.8628 5.93143 15.7425 5.96468 15.6373 6.02765C15.5321 6.09061 15.4459 6.18093 15.388 6.28899L13.981 8.97099V9.19999L16.584 14.01Z" fill="#F4BD62"/>
<path d="M16.537 13.9L19.096 11.28L16.537 6.40001C16.4951 6.29437 16.4235 6.20311 16.3309 6.13723C16.2384 6.07134 16.1287 6.03364 16.0152 6.02867C15.9017 6.0237 15.7891 6.05168 15.6911 6.10923C15.5932 6.16677 15.5139 6.25144 15.463 6.35301L14.049 9.08201L14.007 9.22101L16.537 13.9Z" fill="#FFA50E"/>
<path d="M5.802 24.601L5.879 24.523L6.158 24.41L16.418 14.188L16.548 13.834L13.989 8.95599L5.802 24.601V24.601Z" fill="#F6820C"/>
<path d="M16.912 29.756L26.2001 24.577L23.546 8.246C23.527 8.13087 23.4766 8.02321 23.4004 7.93484C23.3242 7.84648 23.2252 7.78081 23.1141 7.74506C23.003 7.70931 22.8842 7.70486 22.7708 7.73219C22.6574 7.75952 22.5537 7.81758 22.4711 7.89999L5.80005 24.6L15.033 29.755C15.3201 29.9152 15.6433 29.9993 15.972 29.9993C16.3008 29.9993 16.624 29.9152 16.911 29.755" fill="#FDE068"/>
<path d="M26.115 24.534L23.483 8.32599C23.4784 8.21588 23.4412 8.10962 23.3761 8.02066C23.311 7.9317 23.2211 7.86405 23.1175 7.82625C23.014 7.78846 22.9016 7.78223 22.7945 7.80835C22.6874 7.83447 22.5905 7.89177 22.516 7.97299L5.90002 24.569L15.031 29.669C15.3158 29.8279 15.6364 29.9112 15.9625 29.9112C16.2886 29.9112 16.6093 29.8279 16.894 29.669L26.115 24.534Z" fill="#FCCA3F"/>
<path d="M16.912 29.6C16.625 29.7602 16.3018 29.8443 15.973 29.8443C15.6443 29.8443 15.3211 29.7602 15.034 29.6L5.87605 24.522L5.80005 24.6L15.033 29.755C15.3201 29.9152 15.6433 29.9993 15.972 29.9993C16.3008 29.9993 16.624 29.9152 16.911 29.755L26.2001 24.577L26.177 24.437L16.912 29.6Z" fill="#EEAB37"/>
</svg>
