<svg width="26" height="28" viewBox="0 0 26 28" fill="none" xmlns="http://www.w3.org/2000/svg">
<path d="M13 28C12.6223 28.0001 12.2512 27.9008 11.924 27.712L8.5 25.685C7.989 25.399 8.238 25.298 8.407 25.239C8.95047 25.0711 9.47084 24.8359 9.956 24.539C9.99661 24.5202 10.0413 24.5121 10.086 24.5154C10.1306 24.5187 10.1736 24.5334 10.211 24.558L12.842 26.121C12.891 26.1469 12.9456 26.1604 13.001 26.1604C13.0564 26.1604 13.111 26.1469 13.16 26.121L23.42 20.199C23.468 20.1702 23.5077 20.1295 23.5352 20.0807C23.5628 20.032 23.5772 19.9769 23.577 19.921V8.07498C23.577 8.01812 23.5624 7.96222 23.5346 7.91265C23.5067 7.86308 23.4666 7.82152 23.418 7.79198L13.158 1.87498C13.1096 1.84773 13.055 1.83341 12.9995 1.83341C12.944 1.83341 12.8894 1.84773 12.841 1.87498L2.587 7.79398C2.53809 7.8229 2.49747 7.86397 2.46909 7.9132C2.44071 7.96243 2.42552 8.01815 2.425 8.07498V19.916C2.42514 19.9718 2.44012 20.0266 2.46841 20.0748C2.4967 20.1229 2.53728 20.1627 2.586 20.19L5.4 21.814C6.925 22.576 7.859 21.678 7.859 20.776V9.08498C7.859 9.00541 7.89061 8.92911 7.94687 8.87284C8.00313 8.81658 8.07943 8.78498 8.159 8.78498H9.459C9.53856 8.78498 9.61487 8.81658 9.67113 8.87284C9.72739 8.92911 9.759 9.00541 9.759 9.08498V20.777C9.759 22.812 8.651 23.977 6.721 23.977C5.88838 23.9915 5.06881 23.7688 4.358 23.335L1.661 21.788C1.33359 21.5973 1.06192 21.3241 0.873106 20.9956C0.684297 20.6671 0.584955 20.2949 0.584999 19.916V8.07498C0.584025 7.69551 0.682947 7.32246 0.871822 6.99334C1.0607 6.66421 1.33287 6.39059 1.661 6.19998L11.922 0.275977C12.2525 0.0951449 12.6232 0.000366211 13 0.000366211C13.3768 0.000366211 13.7475 0.0951449 14.078 0.275977L24.338 6.19998C24.6654 6.39027 24.9371 6.6631 25.1261 6.99123C25.3151 7.31936 25.4147 7.69132 25.415 8.06998V19.916C25.4144 20.2949 25.3147 20.667 25.1258 20.9954C24.9369 21.3238 24.6653 21.5971 24.338 21.788L14.078 27.712C13.7502 27.9011 13.3784 28.0004 13 28V28Z" fill="#83CD29"/>
<path d="M11.054 15.953C11.054 15.8734 11.0856 15.7971 11.1419 15.7409C11.1981 15.6846 11.2744 15.653 11.354 15.653H12.681C12.7519 15.6532 12.8204 15.6786 12.8744 15.7245C12.9284 15.7705 12.9644 15.834 12.976 15.904C13.176 17.255 13.776 17.936 16.489 17.936C18.65 17.936 19.571 17.447 19.571 16.3C19.571 15.639 19.31 15.148 15.951 14.819C13.143 14.541 11.407 13.919 11.407 11.675C11.407 9.605 13.152 8.37 16.077 8.37C19.364 8.37 20.991 9.51099 21.197 11.959C21.2001 11.9999 21.1949 12.0409 21.1815 12.0797C21.1682 12.1185 21.147 12.1541 21.1194 12.1843C21.0918 12.2146 21.0582 12.2389 21.0208 12.2557C20.9834 12.2725 20.943 12.2814 20.902 12.282H19.566C19.499 12.2811 19.4342 12.2577 19.382 12.2157C19.3298 12.1736 19.2932 12.1153 19.278 12.05C18.959 10.629 18.178 10.175 16.078 10.175C13.718 10.175 13.444 10.997 13.444 11.613C13.444 12.359 13.768 12.577 16.954 12.998C20.107 13.415 21.605 14.005 21.605 16.221C21.605 18.457 19.741 19.737 16.49 19.737C11.995 19.743 11.054 17.682 11.054 15.953V15.953Z" fill="#83CD29"/>
</svg>
