<svg width="52" height="49" viewBox="0 0 52 49" fill="none" xmlns="http://www.w3.org/2000/svg">
<path d="M43.3333 11.3148H40.4444V8.48841C40.4429 6.85222 39.9576 5.25142 39.0469 3.87907C38.1363 2.50672 36.8393 1.42145 35.3123 0.754165C33.7854 0.0868767 32.0937 -0.133928 30.4413 0.118383C28.789 0.370694 27.2465 1.08534 26 2.17613C24.9025 1.20785 23.5696 0.531085 22.1285 0.210486C20.6875 -0.110112 19.1865 -0.0638299 17.7689 0.344911C16.3514 0.753653 15.0646 1.5112 14.0316 2.54517C12.9986 3.57914 12.2539 4.855 11.8685 6.25085C10.8479 5.86155 9.76208 5.66186 8.66667 5.66201C6.36812 5.66201 4.16372 6.55535 2.53841 8.14551C0.913092 9.73566 0 11.8924 0 14.1412V23.5625C0 30.3089 2.73928 36.7791 7.61522 41.5495C12.4912 46.32 19.1044 49 26 49C32.8956 49 39.5088 46.32 44.3848 41.5495C49.2607 36.7791 52 30.3089 52 23.5625V19.794C52 17.5452 51.0869 15.3884 49.4616 13.7983C47.8363 12.2081 45.6319 11.3148 43.3333 11.3148ZM31.7778 5.66201C32.544 5.66201 33.2788 5.95979 33.8205 6.48984C34.3623 7.0199 34.6667 7.7388 34.6667 8.48841V11.3148H28.8889V8.48841C28.8889 7.7388 29.1933 7.0199 29.735 6.48984C30.2768 5.95979 31.0116 5.66201 31.7778 5.66201ZM17.3333 8.48841C17.3333 7.7388 17.6377 7.0199 18.1795 6.48984C18.7212 5.95979 19.456 5.66201 20.2222 5.66201C20.9884 5.66201 21.7232 5.95979 22.265 6.48984C22.8067 7.0199 23.1111 7.7388 23.1111 8.48841V17.9097C23.1111 18.6593 22.8067 19.3782 22.265 19.9083C21.7232 20.4383 20.9884 20.7361 20.2222 20.7361C19.456 20.7361 18.7212 20.4383 18.1795 19.9083C17.6377 19.3782 17.3333 18.6593 17.3333 17.9097V8.48841ZM5.77778 14.1412C5.77778 13.3916 6.08214 12.6727 6.62391 12.1426C7.16569 11.6126 7.90049 11.3148 8.66667 11.3148C9.43285 11.3148 10.1676 11.6126 10.7094 12.1426C11.2512 12.6727 11.5556 13.3916 11.5556 14.1412V17.9097C11.5556 18.6593 11.2512 19.3782 10.7094 19.9083C10.1676 20.4383 9.43285 20.7361 8.66667 20.7361C7.90049 20.7361 7.16569 20.4383 6.62391 19.9083C6.08214 19.3782 5.77778 18.6593 5.77778 17.9097V14.1412ZM46.2222 23.5625C46.2333 28.6087 44.273 33.4684 40.7425 37.1472C37.2121 40.826 32.3782 43.046 27.2299 43.3529C22.0817 43.6598 17.0081 42.0305 13.0472 38.7982C9.08631 35.566 6.5375 30.9751 5.92222 25.9649C7.37422 26.4309 8.92595 26.5152 10.4217 26.2093C11.9175 25.9034 13.3048 25.218 14.4444 24.222C16.0322 25.6152 18.0894 26.3868 20.2222 26.3889C21.9002 26.3876 23.5409 25.9044 24.9407 24.9992C25.3861 25.5643 25.9039 26.0709 26.4815 26.5066C24.3114 28.7726 23.1061 31.7628 23.1111 34.868C23.1111 35.6177 23.4155 36.3366 23.9572 36.8666C24.499 37.3967 25.2338 37.6944 26 37.6944C26.7662 37.6944 27.501 37.3967 28.0428 36.8666C28.5845 36.3366 28.8889 35.6177 28.8889 34.868C28.8952 33.1209 29.6075 31.447 30.8702 30.2116C32.133 28.9762 33.8438 28.2793 35.6296 28.2731C36.3958 28.2731 37.1306 27.9754 37.6724 27.4453C38.2142 26.9153 38.5185 26.1964 38.5185 25.4467C38.5185 24.6971 38.2142 23.9782 37.6724 23.4482C37.1306 22.9181 36.3958 22.6204 35.6296 22.6204H31.7778C31.0116 22.6204 30.2768 22.3226 29.735 21.7925C29.1933 21.2625 28.8889 20.5436 28.8889 19.794V16.9676H43.3333C44.0995 16.9676 44.8343 17.2654 45.3761 17.7954C45.9179 18.3255 46.2222 19.0444 46.2222 19.794V23.5625Z" fill="#F5F4F2"/>
</svg>
