<svg width="44" height="49" viewBox="0 0 44 49" fill="none" xmlns="http://www.w3.org/2000/svg">
<path d="M24.7684 0C14.4109 0 6.05888 8.03056 5.53688 18.13L0.26194 25.0172C-0.397428 25.8611 0.26194 27.2222 1.41583 27.2222H5.53688V35.3889C5.53688 38.4106 7.98204 40.8333 11.0316 40.8333H13.779V49H33.0105V36.2328C39.5218 33.1839 44 26.6778 44 19.0556C44 8.54778 35.4282 0 24.7684 0ZM27.5158 29.9444H22.0211V27.2222H27.5158V29.9444ZM31.9116 17.6944C31.1799 18.9185 30.1381 19.932 28.8895 20.6344V24.5H20.6474V20.6344C16.7187 18.375 15.345 13.3933 17.6253 9.52778C19.9056 5.66222 24.9608 4.24667 28.8895 6.47889C32.8182 8.71111 34.1919 13.7472 31.9116 17.6944Z" fill="#F5F4F2"/>
</svg>
