<svg width="68" height="49" viewBox="0 0 68 49" fill="none" xmlns="http://www.w3.org/2000/svg">
<path d="M37.0909 12.25C37.0909 15.4989 35.7883 18.6147 33.4697 20.9121C31.1511 23.2094 28.0063 24.5 24.7273 24.5C21.4482 24.5 18.3035 23.2094 15.9849 20.9121C13.6662 18.6147 12.3636 15.4989 12.3636 12.25C12.3636 9.0011 13.6662 5.88526 15.9849 3.58794C18.3035 1.29062 21.4482 0 24.7273 0C28.0063 0 31.1511 1.29062 33.4697 3.58794C35.7883 5.88526 37.0909 9.0011 37.0909 12.25ZM49.4545 42.875V49H0V42.875C0 36.1069 11.0655 30.625 24.7273 30.625C38.3891 30.625 49.4545 36.1069 49.4545 42.875ZM60.2727 32.1562V36.75H55.6364V32.1562H60.2727ZM54.0909 16.8438H49.4545V15.3125C49.4545 12.8758 50.4315 10.5389 52.1705 8.81596C53.9094 7.09297 56.268 6.125 58.7273 6.125C61.1866 6.125 63.5451 7.09297 65.2841 8.81596C67.0231 10.5389 68 12.8758 68 15.3125C68 18.2831 66.4545 21.07 64.0127 22.6931L63.0855 23.275C61.3236 24.5 60.2727 26.3681 60.2727 28.4813V29.0938H55.6364V28.4813C55.6364 24.8369 57.4909 21.4375 60.5509 19.4469L61.4473 18.865C62.6527 18.0688 63.3636 16.7519 63.3636 15.3125C63.3636 14.0942 62.8752 12.9257 62.0057 12.0642C61.1362 11.2027 59.9569 10.7188 58.7273 10.7188C57.4976 10.7188 56.3184 11.2027 55.4489 12.0642C54.5794 12.9257 54.0909 14.0942 54.0909 15.3125V16.8438Z" fill="#F5F4F2"/>
</svg>
