<svg xmlns="http://www.w3.org/2000/svg" xmlns:xlink="http://www.w3.org/1999/xlink" aria-hidden="true" role="img" class="iconify iconify--ph" width="32" height="32" preserveAspectRatio="xMidYMid meet" viewBox="0 0 256 256"><g fill="#F5F4F2" opacity=".2"><circle cx="162" cy="128" r="34"></circle><path d="M94 94h34V26H94a34 34 0 0 0 0 68ZM60 196a34 34 0 0 0 68 0v-34H94a34 34 0 0 0-34 34Z"></path></g><path fill="#F5F4F2" d="M186.6 94A42 42 0 0 0 162 18H94a42 42 0 0 0-24.6 76a41.9 41.9 0 0 0 0 68a42 42 0 1 0 66.6 34v-35.1A42 42 0 1 0 186.6 94Zm1.4-34a26.1 26.1 0 0 1-26 26h-26V34h26a26.1 26.1 0 0 1 26 26ZM68 60a26.1 26.1 0 0 1 26-26h26v52H94a26.1 26.1 0 0 1-26-26Zm0 68a26.1 26.1 0 0 1 26-26h26v52H94a26.1 26.1 0 0 1-26-26Zm26 94a26 26 0 0 1 0-52h26v26a26.1 26.1 0 0 1-26 26Zm68-68a26 26 0 0 1 0-52a26 26 0 0 1 0 52Z"></path></svg>