<svg width="50" height="49" viewBox="0 0 50 49" fill="none" xmlns="http://www.w3.org/2000/svg">
<path d="M35.7143 0C29.1429 0 23.8095 5.35415 23.8095 11.9512C23.8095 18.5483 29.1429 23.9024 35.7143 23.9024C42.2857 23.9024 47.619 18.5483 47.619 11.9512C47.619 5.35415 42.2857 0 35.7143 0ZM35.7143 19.122C31.7619 19.122 28.5714 15.919 28.5714 11.9512C28.5714 7.98342 31.7619 4.78049 35.7143 4.78049C39.6667 4.78049 42.8571 7.98342 42.8571 11.9512C42.8571 15.919 39.6667 19.122 35.7143 19.122ZM42.8571 33.4634H38.0952C38.0952 30.5951 36.3095 28.0137 33.6429 27.0098L18.9762 21.5122H0V47.8049H14.2857V44.3629L30.9524 49L50 43.0244V40.6341C50 36.6663 46.8095 33.4634 42.8571 33.4634ZM9.52381 43.0244H4.7619V26.2927H9.52381V43.0244ZM30.881 44.0044L14.2857 39.439V26.2927H18.119L31.9762 31.4795C32.7857 31.7902 33.3333 32.579 33.3333 33.4634C33.3333 33.4634 28.5714 33.3439 27.8571 33.1049L22.1905 31.2166L20.6905 35.758L26.3571 37.6463C27.5714 38.0527 28.8333 38.2439 30.119 38.2439H42.8571C43.7857 38.2439 44.619 38.8176 45 39.6063L30.881 44.0044Z" fill="#F5F4F2"/>
</svg>
