<svg width="306" height="306" viewBox="0 0 306 306" fill="none" xmlns="http://www.w3.org/2000/svg">
<path d="M213.173 1.0522C156.286 -6.94977 103.699 31.5401 93.4891 87.5446C67.7817 101.628 49.5039 127.69 46.423 158.584C19.1379 170.197 0 197.238 0 228.762C0 270.873 34.1384 305.012 76.25 305.012C107.852 304.974 134.946 285.734 146.513 258.334C177.154 255.217 203.076 237.182 217.196 211.442C262.345 203.294 297.526 167.305 303.96 121.563C312.168 63.2148 271.521 9.2608 213.173 1.0522ZM76.25 289.762C42.5602 289.762 15.25 262.451 15.25 228.762C15.25 195.072 42.5602 167.762 76.25 167.762C109.926 167.795 137.216 195.086 137.25 228.762C137.25 262.451 109.94 289.762 76.25 289.762ZM151.085 242.656C151.924 238.138 152.494 233.522 152.5 228.762C152.5 186.65 118.362 152.512 76.25 152.512C71.4862 152.512 66.8658 153.077 62.3441 153.913C68.0693 122.824 92.3945 98.4962 123.485 92.7719C164.875 85.1497 204.605 112.524 212.228 153.913C219.849 195.304 192.474 235.035 151.085 242.656ZM224.595 194.285C224.595 194.285 224.413 194.565 224.285 194.762C226.605 187.307 228.34 179.598 228.674 171.456C230.743 120.992 191.511 78.4061 141.048 76.3379C130.503 75.9051 120.34 77.3683 110.781 80.2686C119.651 50.9079 142.639 27.9408 172.021 19.1216C220.392 4.60315 271.373 32.0464 285.89 80.4166C300.408 128.787 272.965 179.768 224.595 194.285Z" fill="#5C64CF"/>
<path d="M265.986 112.118L160.062 35.6471C155.354 32.1176 150.646 32.1176 145.938 35.6471L40.0139 112.118C36.4831 114.471 34.1292 120.353 35.3062 125.059L75.3221 249.765C76.499 254.471 81.2068 258 87.0914 258H217.732C222.439 258 227.147 254.471 229.501 249.765L270.694 125.059C271.871 120.353 269.517 114.471 265.986 112.118Z" fill="#F09564"/>
</svg>

