<svg width="17" height="16" viewBox="0 0 17 16" fill="none" xmlns="http://www.w3.org/2000/svg">
<path d="M13.9774 5.18592C13.7965 5.12026 13.614 5.05943 13.4302 5.00349C13.4611 4.87002 13.4895 4.73817 13.5147 4.60863C13.929 2.48147 13.6582 0.76779 12.7332 0.203564C11.8463 -0.33734 10.396 0.226676 8.93118 1.57521C8.78681 1.70835 8.64566 1.84533 8.50784 1.98602C8.41557 1.89247 8.32168 1.80073 8.22621 1.71086C6.69103 0.268965 5.15226 -0.338745 4.22829 0.227097C3.34223 0.769687 3.07986 2.38067 3.45279 4.39662C3.4899 4.59628 3.53179 4.79491 3.57843 4.99232C3.36062 5.05779 3.15045 5.12748 2.9493 5.20166C1.14943 5.86549 0 6.90579 0 7.98486C0 9.09933 1.23396 10.2172 3.10861 10.895C3.26059 10.9497 3.41384 11.0004 3.56821 11.0471C3.51807 11.2597 3.47356 11.4737 3.43473 11.689C3.07919 13.67 3.35684 15.2429 4.2405 15.782C5.15319 16.3388 6.68505 15.7666 8.1766 14.3873C8.29755 14.2751 8.41583 14.1598 8.53134 14.0414C8.6806 14.1938 8.83383 14.3417 8.99088 14.485C10.4357 15.8001 11.8627 16.3312 12.7455 15.7906C13.6573 15.2322 13.9537 13.5425 13.5689 11.4867C13.5386 11.3256 13.5046 11.1654 13.467 11.0061C13.5746 10.9723 13.6802 10.9376 13.7831 10.9015C15.732 10.2185 17 9.11422 17 7.98486C17 6.90185 15.8135 5.85454 13.9774 5.18592ZM13.5547 10.1724C13.4617 10.2049 13.3664 10.2363 13.2692 10.2668C13.054 9.54631 12.7637 8.7802 12.4083 7.98858C12.7474 7.21586 13.0266 6.45951 13.2357 5.74369C13.4096 5.79693 13.5784 5.85306 13.741 5.91228C15.3142 6.48522 16.2738 7.33219 16.2738 7.98486C16.2738 8.68002 15.2374 9.58249 13.5547 10.1724ZM12.8565 11.6359C13.0266 12.5449 13.0509 13.3668 12.9382 14.0093C12.837 14.5867 12.6334 14.9716 12.3816 15.1258C11.8459 15.4538 10.7002 15.0274 9.46455 13.9026C9.31848 13.7694 9.17594 13.6319 9.03709 13.4903C9.51615 12.9361 9.99487 12.2919 10.4621 11.5763C11.2839 11.4992 12.0604 11.373 12.7645 11.2008C12.7984 11.3451 12.8291 11.4901 12.8565 11.6359ZM5.79567 15.0691C5.27226 15.2646 4.85536 15.2702 4.60335 15.1165C4.06712 14.7894 3.84419 13.5264 4.14827 11.8323C4.18441 11.6321 4.2258 11.433 4.27238 11.2353C4.96871 11.3982 5.73949 11.5154 6.56326 11.5861C7.03368 12.2862 7.52622 12.9298 8.0226 13.4933C7.91712 13.6013 7.80913 13.7065 7.69874 13.8088C7.03913 14.4187 6.37819 14.8515 5.79567 15.0691ZM3.34355 10.1681C2.51461 9.86833 1.83002 9.4788 1.3608 9.05374C0.939117 8.6718 0.726285 8.29254 0.726285 7.98486C0.726285 7.33001 1.64913 6.49477 3.18836 5.9271C3.37516 5.85826 3.57066 5.79328 3.77354 5.73231C3.9863 6.46428 4.26534 7.22963 4.60209 8.00354C4.26096 8.78891 3.97793 9.56647 3.76311 10.3071C3.6222 10.2644 3.48231 10.218 3.34355 10.1681ZM4.16553 4.24903C3.84605 2.52186 4.05822 1.21899 4.59219 0.891988C5.16089 0.543702 6.4185 1.04028 7.74403 2.28534C7.83047 2.36672 7.9155 2.44974 7.9991 2.53437C7.50517 3.09543 7.01715 3.73419 6.55091 4.4302C5.75138 4.5086 4.98605 4.63448 4.28241 4.80315C4.23905 4.61953 4.20008 4.43479 4.16553 4.2491V4.24903ZM11.4986 6.16454C11.3324 5.86085 11.16 5.56099 10.9816 5.26516C11.524 5.33773 12.0437 5.43404 12.5317 5.55177C12.3852 6.04856 12.2026 6.5679 11.9877 7.10037C11.8305 6.78501 11.6675 6.47301 11.4986 6.16454ZM8.50817 3.08342C8.84312 3.46732 9.17861 3.8959 9.50858 4.36094C8.8392 4.3275 8.16871 4.32736 7.49932 4.36052C7.82963 3.89977 8.16797 3.47175 8.50817 3.08342ZM5.49857 6.16981C5.33178 6.47579 5.17176 6.78585 5.01865 7.09974C4.80721 6.56916 4.62626 6.04744 4.4785 5.54362C4.96354 5.42884 5.48077 5.33499 6.01973 5.26376C5.83933 5.56139 5.66556 5.86347 5.49857 6.16974V6.16981ZM6.0352 10.7606C5.47838 10.6949 4.95337 10.6059 4.46848 10.4942C4.61855 9.98135 4.8035 9.44853 5.01952 8.90657C5.17323 9.22069 5.33392 9.53094 5.50143 9.83707C5.67368 10.1518 5.85205 10.46 6.0352 10.7606ZM8.52822 12.9404C8.18397 12.5476 7.84065 12.1129 7.50537 11.6455C7.83089 11.659 8.16272 11.6659 8.5 11.6659C8.84651 11.6659 9.18903 11.6577 9.52618 11.6418C9.19514 12.1176 8.86092 12.5529 8.52822 12.9404ZM11.9945 8.87889C12.2217 9.42682 12.4133 9.95684 12.5653 10.4609C12.0725 10.5799 11.5403 10.6757 10.9795 10.7468C11.1592 10.4455 11.3332 10.1404 11.5014 9.8318C11.6724 9.51807 11.8368 9.20036 11.9945 8.87889ZM10.8724 9.44797C10.6149 9.92118 10.3429 10.3854 10.0568 10.8399C9.5387 10.8787 9.01943 10.898 8.5 10.8977C7.97094 10.8977 7.45636 10.8803 6.96084 10.8463C6.66734 10.3928 6.39016 9.92781 6.12989 9.45218H6.12996C5.87092 8.97907 5.62896 8.49573 5.40461 8.00319C5.62839 7.51054 5.86962 7.02697 6.12777 6.5535L6.1277 6.55357C6.38576 6.07998 6.66072 5.61692 6.952 5.16541C7.45755 5.12495 7.97599 5.10387 8.49993 5.10387H8.5C9.02634 5.10387 9.54543 5.12516 10.0509 5.1659C10.3392 5.61674 10.6124 6.0782 10.87 6.54942C11.129 7.02185 11.3734 7.50306 11.6028 7.9923C11.3758 8.48654 11.1321 8.97207 10.8724 9.44797ZM12.3705 0.869087C12.9397 1.21639 13.1611 2.61691 12.8035 4.45352C12.7806 4.5707 12.755 4.69005 12.7271 4.81108C12.0217 4.63884 11.2559 4.51078 10.454 4.43119C9.9869 3.72752 9.50287 3.08778 9.01697 2.53395C9.14432 2.4041 9.27469 2.27761 9.40797 2.15461C10.6631 0.999255 11.8361 0.543069 12.3705 0.869087ZM8.5 6.379C9.33838 6.379 10.018 7.09798 10.018 7.98486C10.018 8.87173 9.33838 9.59071 8.5 9.59071C7.66162 9.59071 6.98195 8.87173 6.98195 7.98486C6.98195 7.09798 7.66162 6.379 8.5 6.379Z" fill="#00D8FF"/>
</svg>
