<svg width="60" height="49" viewBox="0 0 60 49" fill="none" xmlns="http://www.w3.org/2000/svg">
<path fill-rule="evenodd" clip-rule="evenodd" d="M60 25.48L36 49L24 37.24L30 31.36L36 37.24L54 19.6L60 25.48ZM18.8 39.984L22 43.12H4C1.8 43.12 0 41.356 0 39.2V3.92C0 1.764 1.8 0 4 0H32C34.2 0 36 1.764 36 3.92V29.4L32.8 26.264C31.24 24.7352 28.68 24.7352 27.12 26.264L18.8 34.496C18.4292 34.8587 18.135 35.2894 17.9343 35.7636C17.7335 36.2378 17.6302 36.7462 17.6302 37.2596C17.6302 37.773 17.7335 38.2814 17.9343 38.7556C18.135 39.2298 18.4292 39.6605 18.8 40.0232V39.984V39.984ZM12 7.84H32V3.92H12V7.84ZM12 15.68H32V11.76H12V15.68ZM12 23.52H24V19.6H12V23.52ZM8 27.44H4V31.36H8V27.44ZM8 19.6H4V23.52H8V19.6ZM8 11.76H4V15.68H8V11.76ZM8 3.92H4V7.84H8V3.92Z" fill="#F5F4F2"/>
</svg>
