<svg width="13" height="13" viewBox="0 0 13 13" fill="none" xmlns="http://www.w3.org/2000/svg">
<path d="M11.7587 7.7987C11.5945 7.7987 11.4371 7.8672 11.321 7.98913C11.205 8.11106 11.1398 8.27643 11.1398 8.44886V11.0495C11.1398 11.2219 11.0746 11.3873 10.9585 11.5092C10.8425 11.6312 10.685 11.6997 10.5209 11.6997H1.85663C1.69249 11.6997 1.53508 11.6312 1.41902 11.5092C1.30296 11.3873 1.23775 11.2219 1.23775 11.0495V4.81446L4.87675 8.64391C5.22487 9.00918 5.69676 9.21434 6.18877 9.21434C6.68078 9.21434 7.15267 9.00918 7.50079 8.64391L8.51574 7.57765C8.63228 7.45522 8.69775 7.28917 8.69775 7.11603C8.69775 6.94289 8.63228 6.77685 8.51574 6.65442C8.39921 6.53199 8.24115 6.46321 8.07634 6.46321C7.91153 6.46321 7.75348 6.53199 7.63694 6.65442L6.62198 7.72068C6.5063 7.83981 6.35076 7.90654 6.18877 7.90654C6.02677 7.90654 5.87124 7.83981 5.75555 7.72068L2.11037 3.89773H6.18877C6.3529 3.89773 6.51032 3.82923 6.62638 3.7073C6.74244 3.58537 6.80764 3.42 6.80764 3.24757C6.80764 3.07513 6.74244 2.90976 6.62638 2.78783C6.51032 2.66591 6.3529 2.59741 6.18877 2.59741H1.85663C1.36422 2.59741 0.89198 2.8029 0.543794 3.16869C0.195609 3.53448 0 4.03059 0 4.54789V11.0495C0 11.5668 0.195609 12.0629 0.543794 12.4287C0.89198 12.7945 1.36422 13 1.85663 13H10.5209C11.0133 13 11.4856 12.7945 11.8337 12.4287C12.1819 12.0629 12.3775 11.5668 12.3775 11.0495V8.44886C12.3775 8.27643 12.3123 8.11106 12.1963 7.98913C12.0802 7.8672 11.9228 7.7987 11.7587 7.7987ZM12.8169 2.13579L10.9603 0.185305C10.9014 0.126114 10.832 0.079715 10.7561 0.0487709C10.6054 -0.016257 10.4364 -0.016257 10.2857 0.0487709C10.2098 0.079715 10.1404 0.126114 10.0815 0.185305L8.22487 2.13579C8.10834 2.25822 8.04287 2.42427 8.04287 2.59741C8.04287 2.77055 8.10834 2.93659 8.22487 3.05902C8.34141 3.18145 8.49947 3.25023 8.66427 3.25023C8.82908 3.25023 8.98714 3.18145 9.10368 3.05902L9.90203 2.21381V5.84822C9.90203 6.02065 9.96723 6.18602 10.0833 6.30795C10.1994 6.42988 10.3568 6.49838 10.5209 6.49838C10.685 6.49838 10.8425 6.42988 10.9585 6.30795C11.0746 6.18602 11.1398 6.02065 11.1398 5.84822V2.21381L11.9381 3.05902C11.9957 3.11996 12.0641 3.16833 12.1395 3.20134C12.2149 3.23434 12.2958 3.25134 12.3775 3.25134C12.4592 3.25134 12.5401 3.23434 12.6155 3.20134C12.691 3.16833 12.7594 3.11996 12.8169 3.05902C12.8749 2.99858 12.921 2.92667 12.9524 2.84744C12.9838 2.76822 13 2.68324 13 2.59741C13 2.51158 12.9838 2.4266 12.9524 2.34737C12.921 2.26814 12.8749 2.19623 12.8169 2.13579Z" fill="#F5F4F2"/>
</svg>
