<svg width="72" height="49" viewBox="0 0 72 49" fill="none" xmlns="http://www.w3.org/2000/svg">
<path d="M33.6407 47.2661C33.5134 47.7596 33.2242 48.1975 32.8182 48.5113C32.4122 48.825 31.9124 48.9969 31.397 49C31.2114 48.9994 31.0271 48.9706 30.8504 48.9147L22.1632 46.7829C21.4586 46.607 20.8073 46.2657 20.2647 45.788L13.7925 40.2167C13.5658 40.0226 13.3801 39.7863 13.2459 39.5212C13.1116 39.2562 13.0316 38.9676 13.0102 38.672C12.9888 38.3764 13.0266 38.0795 13.1213 37.7983C13.2161 37.5171 13.3659 37.2571 13.5624 37.0331C13.7588 36.8091 13.998 36.6256 14.2662 36.493C14.5344 36.3603 14.8264 36.2812 15.1256 36.2601C15.4247 36.2389 15.7252 36.2763 16.0098 36.3699C16.2943 36.4635 16.5575 36.6116 16.7841 36.8057L23.2851 42.377L31.9435 44.5089C32.5357 44.6569 33.0453 45.0288 33.3628 45.5445C33.6802 46.0602 33.78 46.6784 33.6407 47.2661ZM71.7837 20.2056C71.5945 20.7781 71.2908 21.3071 70.8905 21.7612C70.4902 22.2154 70.0016 22.5853 69.4537 22.8491L62.7513 26.1748L58.4653 31.1492H58.4077C58.4077 31.1776 58.379 31.1776 58.379 31.206H58.3502L47.7645 41.6664C46.8872 42.5137 45.712 42.9925 44.4853 43.0023C44.1164 42.999 43.7493 42.9513 43.3922 42.8602L26.7082 38.7955C26.0783 38.6502 25.4888 38.3687 24.9823 37.9711L9.44891 25.9758L2.54519 22.5648C1.44242 22.0126 0.605002 21.0522 0.215191 19.8929C0.0309038 19.3185 -0.0360241 18.7136 0.0182957 18.1134C0.0726155 17.5132 0.2471 16.9296 0.531611 16.3966L7.60792 3.00849C8.16713 1.95492 9.11957 1.15795 10.2633 0.786511C11.4071 0.415076 12.6523 0.498372 13.735 1.01874L20.1784 4.20233L34.1872 0.165997C35.2374 -0.116772 36.3537 -0.0365409 37.3514 0.393397L46.844 4.65713H51.5616L58.2639 1.33142C59.3419 0.801454 60.587 0.70999 61.7324 1.07664C62.8778 1.44329 63.8322 2.23886 64.391 3.29274L71.4673 16.6809C71.7526 17.2187 71.9275 17.8071 71.9818 18.412C72.0361 19.0169 71.9688 19.6265 71.7837 20.2056ZM53.1724 29.9269L44.0825 23.3892L41.7525 25.1231C39.7571 26.5904 37.3361 27.3829 34.8488 27.3829C32.3615 27.3829 29.9405 26.5904 27.9451 25.1231L26.3918 23.9577C25.8611 23.5693 25.4218 23.072 25.1041 22.4999C24.7865 21.9279 24.5979 21.2946 24.5514 20.6437C24.505 19.9928 24.6017 19.3396 24.835 18.7292C25.0682 18.1187 25.4325 17.5654 25.9028 17.1072L37.1501 5.96468L37.6678 5.53831L35.4529 4.54343L21.4441 8.57977L13.6199 23.4176L27.83 34.3896L44.4853 38.5112L53.1724 29.9269ZM58.5516 24.0429L50.7274 9.20512H40.4006L29.1533 20.3193L30.7066 21.4847C31.9071 22.3574 33.3584 22.8281 34.8488 22.8281C36.3392 22.8281 37.7905 22.3574 38.991 21.4847L42.673 18.7559C43.0657 18.4632 43.5429 18.3025 44.0347 18.2974C44.5265 18.2923 45.007 18.443 45.4057 18.7275L56.3366 26.5727L58.5516 24.0429Z" fill="#F5F4F2"/>
</svg>
