<svg width="39" height="51" viewBox="0 0 39 51" fill="none" xmlns="http://www.w3.org/2000/svg">
<path d="M16.0545 22.88C16.5057 23.3316 17.0424 23.6901 17.6337 23.9347C18.2251 24.1794 18.8594 24.3053 19.5 24.3053C20.1406 24.3053 20.7749 24.1794 21.3663 23.9347C21.9576 23.6901 22.4943 23.3316 22.9455 22.88L37.5037 8.4244C37.9689 7.97513 38.3405 7.43927 38.5971 6.84742C38.8538 6.25557 38.9905 5.61933 38.9995 4.97501C39.0085 4.3307 38.8896 3.69093 38.6497 3.09223C38.4097 2.49353 38.0533 1.94764 37.6008 1.48571C37.1483 1.02378 36.6087 0.654866 36.0126 0.400029C35.4166 0.145192 34.7758 0.00942266 34.1269 0.00047382C33.478 -0.00847502 32.8337 0.109571 32.2307 0.347873C31.6278 0.586174 31.078 0.940065 30.6128 1.38934L19.5 12.6647L8.38718 1.38934C7.44765 0.48199 6.18359 -0.0175992 4.87309 0.00047382C3.56259 0.0185468 2.313 0.552802 1.39921 1.48571C0.485416 2.41862 -0.0177242 3.67376 0.000477183 4.97501C0.0186786 6.27627 0.556728 7.51705 1.49626 8.4244L16.0545 22.88ZM30.6128 28.084L19.5 39.1666L8.38718 28.084C7.44765 27.1767 6.18359 26.6771 4.87309 26.6952C3.56259 26.7132 2.313 27.2475 1.39921 28.1804C0.485416 29.1133 -0.0177242 30.3684 0.000477183 31.6697C0.0186786 32.971 0.556728 34.2117 1.49626 35.1191L16.0545 49.5747C16.5057 50.0263 17.0424 50.3848 17.6337 50.6294C18.2251 50.874 18.8594 51 19.5 51C20.1406 51 20.7749 50.874 21.3663 50.6294C21.9576 50.3848 22.4943 50.0263 22.9455 49.5747L37.5037 35.1191C38.4175 34.2117 38.9309 32.9811 38.9309 31.6979C38.9309 30.4147 38.4175 29.1841 37.5037 28.2768C36.5899 27.3694 35.3506 26.8597 34.0583 26.8597C32.766 26.8597 31.5266 27.3694 30.6128 28.2768V28.084Z" fill="#5C64CF"/>
</svg>
