<svg width="85" height="52" viewBox="0 0 85 52" fill="none" xmlns="http://www.w3.org/2000/svg">
<path d="M42.0086 52C41.7297 52 41.4508 51.9204 41.1984 51.7877L38.6484 50.2754C38.2633 50.0632 38.4492 49.9836 38.582 49.9438C39.0867 49.7713 39.193 49.7315 39.7375 49.4132C39.7906 49.3866 39.8703 49.3999 39.9234 49.4264L41.8891 50.5938C41.9555 50.6336 42.0617 50.6336 42.1281 50.5938L49.8047 46.163C49.8711 46.1232 49.9242 46.0437 49.9242 45.9508V37.1025C49.9242 37.0097 49.8844 36.9301 49.8047 36.8903L42.1281 32.4727C42.0617 32.4329 41.9688 32.4329 41.8891 32.4727L34.2125 36.8903C34.1328 36.9301 34.093 37.0229 34.093 37.1025V45.9508C34.093 46.0304 34.1461 46.11 34.2125 46.1498L36.3109 47.357C37.4531 47.9274 38.157 47.2508 38.157 46.5876V37.8454C38.157 37.726 38.25 37.6199 38.3828 37.6199H39.3523C39.4719 37.6199 39.5781 37.7127 39.5781 37.8454V46.5876C39.5781 48.1131 38.7547 48.9754 37.307 48.9754C36.8687 48.9754 36.5102 48.9754 35.5406 48.4978L33.5219 47.3437C33.0305 47.0519 32.7117 46.5212 32.7117 45.9508V37.1025C32.7117 36.5321 33.0172 35.9882 33.5219 35.7096L41.1984 31.2788C41.6898 31.0002 42.3273 31.0002 42.8055 31.2788L50.482 35.7096C50.9734 36.0014 51.2922 36.5321 51.2922 37.1025V45.9508C51.2922 46.5212 50.9867 47.0651 50.482 47.3437L42.8055 51.7745C42.5797 51.9204 42.3008 52 42.0086 52ZM48.2109 43.2711C48.2109 41.6129 47.0953 41.1751 44.7312 40.8567C42.3406 40.5383 42.1016 40.3792 42.1016 39.822C42.1016 39.3577 42.3008 38.7475 44.0672 38.7475C45.6477 38.7475 46.232 39.0924 46.4711 40.1536C46.4977 40.2598 46.5773 40.3261 46.6836 40.3261H47.6797C47.7461 40.3261 47.7992 40.2996 47.8391 40.2598C47.8789 40.2067 47.9055 40.1536 47.8922 40.0873C47.7328 38.2566 46.5242 37.4076 44.0672 37.4076C41.8758 37.4076 40.5742 38.3362 40.5742 39.8751C40.5742 41.5598 41.8758 42.0109 43.9742 42.2231C46.4844 42.4752 46.6836 42.8333 46.6836 43.3242C46.6836 44.1864 45.993 44.5446 44.3727 44.5446C42.3406 44.5446 41.8891 44.0405 41.743 43.0323C41.7297 42.9262 41.6367 42.8466 41.5172 42.8466H40.5211C40.4016 42.8466 40.2953 42.9395 40.2953 43.0721C40.2953 44.3589 40.9992 45.8977 44.3594 45.8977C46.8164 45.8977 48.2109 44.9426 48.2109 43.2711ZM55.4492 36.6249C55.4492 37.4342 54.7852 38.0974 53.975 38.0974C53.1648 38.0974 52.5008 37.4342 52.5008 36.6249C52.5008 35.7892 53.1914 35.1524 53.975 35.1524C54.7719 35.1392 55.4492 35.7892 55.4492 36.6249ZM55.2102 36.6249C55.2102 35.9351 54.6523 35.3912 53.9617 35.3912C53.2844 35.3912 52.7266 35.9351 52.7266 36.6249C52.7266 37.3148 53.2844 37.8719 53.9617 37.8719C54.6523 37.8587 55.2102 37.3015 55.2102 36.6249ZM54.6125 37.4474H54.2672C54.2539 37.3678 54.2008 36.9433 54.2008 36.9301C54.1742 36.8372 54.1477 36.7841 54.0281 36.7841H53.7359V37.4474H53.4172V35.7892H53.9883C54.1875 35.7892 54.5727 35.7892 54.5727 36.227C54.5727 36.5321 54.3734 36.5984 54.2539 36.6382C54.4797 36.6515 54.493 36.7974 54.5328 37.0096C54.5461 37.1423 54.5727 37.3678 54.6125 37.4474ZM54.2406 36.28C54.2406 36.0545 54.0812 36.0545 54.0016 36.0545H53.7359V36.5188H53.9883C54.2008 36.5188 54.2406 36.3729 54.2406 36.28ZM18.2352 17.3763C18.2352 17.0181 18.0492 16.6997 17.7438 16.5273L9.60234 11.8444C9.46953 11.7648 9.31016 11.725 9.15078 11.7118H9.07109C8.91172 11.7118 8.76562 11.7648 8.61953 11.8444L0.491406 16.5273C0.185938 16.6997 0 17.0314 0 17.3763L0.0132813 29.9788C0.0132813 30.1512 0.10625 30.3104 0.252344 30.4033C0.398438 30.4961 0.584375 30.4961 0.74375 30.4033L5.57812 27.6307C5.88359 27.445 6.06953 27.1266 6.06953 26.7817V20.8917C6.06953 20.5468 6.25547 20.2151 6.56094 20.0427L8.61953 18.862C8.77891 18.7692 8.93828 18.7294 9.11094 18.7294C9.28359 18.7294 9.45625 18.7692 9.60234 18.862L11.6609 20.0427C11.9664 20.2151 12.1523 20.5468 12.1523 20.8917V26.7817C12.1523 27.1266 12.3383 27.4583 12.6437 27.6307L17.4781 30.4033C17.6242 30.4961 17.8234 30.4961 17.9695 30.4033C18.1156 30.3237 18.2086 30.1512 18.2086 29.9788L18.2352 17.3763ZM62.7539 3.61964V27.0205C62.7539 27.3654 62.568 27.6971 62.2625 27.8695L54.1211 32.5656C53.8156 32.7381 53.4438 32.7381 53.1383 32.5656L44.9969 27.8695C44.6914 27.6971 44.5055 27.3654 44.5055 27.0205V17.6283C44.5055 17.2834 44.6914 16.9518 44.9969 16.7793L53.1383 12.0832C53.4438 11.9108 53.8156 11.9108 54.1211 12.0832L56.1531 13.2506C56.3789 13.3833 56.6711 13.2108 56.6711 12.9588V0.488908C56.6711 0.117466 57.0695 -0.121319 57.4016 0.0644024L62.2492 2.77063C62.5547 2.92981 62.7539 3.26146 62.7539 3.61964ZM56.6445 20.7192C56.6445 20.6264 56.5914 20.5468 56.525 20.507L53.7359 18.8886C53.6562 18.8488 53.5633 18.8488 53.4836 18.8886L50.6945 20.507C50.6148 20.5468 50.575 20.6264 50.575 20.7192V23.9428C50.575 24.0357 50.6281 24.1153 50.6945 24.1551L53.4836 25.7603C53.5633 25.8 53.6562 25.8 53.7227 25.7603L56.5117 24.1551C56.5914 24.1153 56.6312 24.0357 56.6312 23.9428V20.7192H56.6445ZM84.5086 20.6264C84.8141 20.4539 85 20.1223 85 19.7774V17.5089C85 17.164 84.8141 16.8324 84.5086 16.6599L76.4203 11.9638C76.1148 11.7914 75.743 11.7914 75.4375 11.9638L67.2961 16.6599C66.9906 16.8324 66.8047 17.164 66.8047 17.5089V26.9011C66.8047 27.2593 66.9906 27.5777 67.2961 27.7501L75.3844 32.3534C75.6766 32.5258 76.0484 32.5258 76.3539 32.3534L81.2414 29.6339C81.5734 29.4481 81.5734 28.9706 81.2414 28.7849L73.0469 24.0888C72.8875 23.9959 72.7945 23.8367 72.7945 23.6643V20.7192C72.7945 20.5468 72.8875 20.3876 73.0469 20.2947L75.5969 18.8222C75.743 18.7294 75.9422 18.7294 76.0883 18.8222L78.6383 20.2947C78.7844 20.3876 78.8906 20.5468 78.8906 20.7192V23.0275C78.8906 23.3989 79.3023 23.6377 79.6344 23.452L84.5086 20.6264ZM74.2422 21.0907C74.1891 21.1305 74.1492 21.1836 74.1492 21.2499V23.054C74.1492 23.1204 74.1891 23.1867 74.2422 23.2132L75.8094 24.1153C75.8625 24.1551 75.9422 24.1551 75.9953 24.1153L77.5625 23.2132C77.6156 23.1734 77.6555 23.1204 77.6555 23.054V21.2499C77.6555 21.1836 77.6156 21.1172 77.5625 21.0907L75.9953 20.1886C75.9422 20.1488 75.8625 20.1488 75.8094 20.1886L74.2422 21.0907ZM40.4812 26.8613V17.5222C40.4812 17.1773 40.2687 16.8456 39.9633 16.6732L31.8484 12.0036C31.5695 11.8444 31.1844 11.8179 30.8656 12.0036L22.7508 16.6732C22.4453 16.8456 22.2328 17.164 22.2328 17.5222V26.8613C22.2328 27.2328 22.4852 27.5511 22.7641 27.7103L30.8922 32.3799C31.2109 32.5656 31.5828 32.5523 31.875 32.3799L39.9766 27.7103C40.2156 27.5777 40.3883 27.3521 40.4547 27.0868C40.468 27.0205 40.4812 26.9409 40.4812 26.8613ZM30.6133 10.2923L30.507 10.3587H30.6531L30.6133 10.2923ZM40.7336 27.5644L40.6805 27.4715V27.5909L40.7336 27.5644Z" fill="white"/>
</svg>
